<?xml version="1.0" encoding="UTF-8" standalone="no"?>
<!DOCTYPE svg PUBLIC "-//W3C//DTD SVG 1.1//EN" "http://www.w3.org/Graphics/SVG/1.1/DTD/svg11.dtd">
<svg width="100%" height="100%" viewBox="0 0 1032 1009" version="1.1" xmlns="http://www.w3.org/2000/svg" xmlns:xlink="http://www.w3.org/1999/xlink" xml:space="preserve" xmlns:serif="http://www.serif.com/" style="fill-rule:evenodd;clip-rule:evenodd;stroke-linejoin:round;stroke-miterlimit:2;">
    <g transform="matrix(4.166667,0,0,4.166667,-2809,-741)">
        <g transform="matrix(0.231261,0,0,0.229101,24.549244,8.075989)">
            <path d="M3880,1005.25L3880,1533.75C3880,1679.594 3762.699,1798 3618.217,1798L3070.783,1798C2926.301,1798 2809,1679.594 2809,1533.75L2809,1005.25C2809,859.406 2926.301,741 3070.783,741L3618.217,741C3762.699,741 3880,859.406 3880,1005.25Z" style="fill:white;"/>
        </g>
        <g transform="matrix(1,0,0,1,818.5338,263.8112)">
            <path d="M0,94.018C-8.611,95.31 -13.928,103.447 -12.56,110.849C-11.15,118.474 -4.144,123.342 3.446,122.454C11.221,121.544 17.102,114.438 15.929,106.248C14.944,99.375 8.211,92.786 0,94.018M16.116,-48.923C16.449,-48.929 16.945,-48.953 17.208,-48.929C35.939,-47.236 72.155,-48.304 92.758,-47.572L39.138,110.07C35.155,121.779 29.859,131.814 18.392,137.12C11.758,140.19 4.288,142.631 -3.262,142.684L-43.864,142.971L-31.297,106.902L-21.167,80.209L8.261,80.109C9.924,74.283 15.072,66.822 12.605,60.354C8.8,50.377 1.662,42.819 -4.544,33.597L2.445,13.803L40.252,13.131C47.016,13.01 51.057,4.614 51.306,-1.514L21.131,-1.728C18.674,-1.746 12.919,-3.058 12.39,-5.473C10.815,-12.659 19.894,-22.627 15.246,-25.195C14.153,-25.8 12.339,-26.349 9.572,-27.239L14.49,-40.537C15.577,-43.475 16.409,-46.199 16.116,-48.923" style="fill:rgb(200,36,40);fill-rule:nonzero;"/>
        </g>
        <g transform="matrix(1,0,0,1,689.6959,188.713)">
            <path d="M0,189.776L40.934,73.581L57.841,27.852C62.834,14.345 76.615,2.329 91.298,1.388C112.98,0 133.311,1.156 154.902,0.913L146.046,26.17C145.783,26.146 145.287,26.17 144.954,26.175C144.414,21.152 139.188,18.06 133.956,18.09L116.967,18.187L111.704,30.428C108.991,36.735 108.121,42.154 113.699,48.295L84.404,48.498C73.838,48.571 65.784,54.982 62.195,64.479L46.067,107.154C54.865,110.255 63.722,106.296 67.003,97.511C69.99,89.517 72.892,81.477 76.54,73.763C79.119,68.309 87.774,68.127 92.757,69.245L81.344,100.782C79.249,106.57 77.432,114.102 80.574,119.861L88.755,134.859L70.602,135.163L63.115,155.095L86.469,155.509L73.042,189.717" style="fill:rgb(3,4,4);fill-rule:nonzero;"/>
        </g>
        <g transform="matrix(-0.999333,0.036525,0.036525,0.999333,690.148039,377.533133)">
            <path d="M-2.737,-0.05L0.001,-0.05" style="fill:none;fill-rule:nonzero;"/>
        </g>
        <g transform="matrix(-0.992737,0.120304,0.120304,0.992737,823.386067,385.628262)">
            <path d="M1.473,-28.181C-6.827,-28.416 -12.718,-21.065 -12.869,-14.123C-13.048,-5.852 -6.355,0.495 1.473,0.463C9.114,0.432 15.484,-5.244 15.966,-12.983C16.434,-20.496 10.177,-27.934 1.473,-28.181" style="fill:rgb(253,253,253);fill-rule:nonzero;"/>
        </g>
    </g>
</svg>
