<?xml version="1.0" encoding="UTF-8"?>
<svg id="Layer_2" data-name="Layer 2" xmlns="http://www.w3.org/2000/svg" viewBox="0 0 221.6 217.38">
  <defs>
    <style>
      .cls-1 {
        fill: #fbfcfc;
      }

      .cls-2 {
        fill: #105d5f;
      }

      .cls-3 {
        fill: #c82428;
      }
    </style>
  </defs>
  <g id="Layer_1-2" data-name="Layer 1">
    <path class="cls-3" d="M144.95,25.48c.33,0,.83-.03,1.09,0,18.73,1.69,54.95.62,75.55,1.36l-53.62,157.64c-3.98,11.71-9.28,21.74-20.75,27.05-6.63,3.07-14.1,5.51-21.65,5.56l-40.6.29,12.57-36.07,10.13-26.69,29.43-.1c1.66-5.83,6.81-13.29,4.34-19.75-3.81-9.98-10.94-17.54-17.15-26.76l6.99-19.79,37.81-.67c6.76-.12,10.81-8.52,11.05-14.64l-30.18-.21c-2.46-.02-8.21-1.33-8.74-3.75-1.57-7.19,7.5-17.15,2.86-19.72-1.09-.6-2.91-1.15-5.67-2.04l4.92-13.3c1.09-2.94,1.92-5.66,1.63-8.39ZM128.84,168.43c-8.61,1.29-13.93,9.43-12.56,16.83,1.41,7.62,8.42,12.49,16.01,11.61s13.66-8.02,12.48-16.21c-.99-6.87-7.72-13.46-15.93-12.23Z"/>
    <path d="M0,189.08l40.93-116.2,16.91-45.73C62.83,13.65,76.61,1.64,91.3.7c21.68-1.39,42.01-.23,63.6-.48l-8.86,25.26c-.26-.02-.76,0-1.09,0-.54-5.02-5.77-8.11-11-8.09l-16.99.1-5.26,12.24c-2.71,6.31-3.58,11.73,2,17.87l-29.3.2c-10.57.07-18.62,6.48-22.21,15.98l-16.13,42.68c8.8,3.1,17.66-.86,20.94-9.64,2.99-7.99,5.89-16.03,9.54-23.75,2.58-5.45,11.23-5.64,16.22-4.52l-11.41,31.54c-2.09,5.79-3.91,13.32-.77,19.08l8.18,15-18.15.3-7.49,19.93,23.35.41-13.43,34.21"/>
    <path class="cls-2" d="M3.19,187.98l-2.74.1"/>
    <path class="cls-1" d="M128.84,168.43c8.21-1.23,14.94,5.36,15.93,12.23,1.17,8.19-4.71,15.3-12.48,16.21s-14.6-3.98-16.01-11.61c-1.37-7.4,3.95-15.54,12.56-16.83Z"/>
  </g>
</svg>